<svg width="172" height="55" viewBox="0 0 172 55" fill="none" xmlns="http://www.w3.org/2000/svg">
<rect width="172" height="55" rx="3" fill="#222D39"/>
<path d="M47.7537 26.9492C47.724 23.6354 50.4562 22.0232 50.5812 21.9482C49.0338 19.6831 46.6354 19.3736 45.7926 19.3489C43.7782 19.1361 41.8242 20.5591 40.7981 20.5591C39.7515 20.5591 38.1713 19.3695 36.4682 19.4045C34.2767 19.4384 32.2265 20.7123 31.102 22.6905C28.7815 26.724 30.5121 32.6514 32.7355 35.9117C33.8476 37.5095 35.1472 39.2913 36.8482 39.2286C38.5123 39.1607 39.1339 38.1644 41.1422 38.1644C43.1319 38.1644 43.7157 39.2286 45.4505 39.1885C47.2366 39.1607 48.3609 37.5846 49.4343 35.9734C50.7195 34.1443 51.2356 32.3409 51.2561 32.2484C51.2151 32.234 47.7885 30.92 47.7537 26.9492ZM44.4766 17.2042C45.3715 16.0804 45.984 14.5515 45.814 13C44.5185 13.0576 42.8984 13.8996 41.9654 14.9988C41.14 15.9673 40.4026 17.5548 40.5931 19.0477C42.0484 19.1567 43.5426 18.3105 44.4766 17.2042Z" fill="white"/>
<path d="M71.8578 38.9993H69.532L68.2581 34.9802H63.8298L62.6162 38.9993H60.3521L64.7403 25.3165H67.45L71.8578 38.9993ZM67.8741 33.294L66.722 29.7211C66.6001 29.3561 66.3707 28.4966 66.0347 27.1435H65.9939C65.8587 27.7254 65.6426 28.585 65.3466 29.7211L64.214 33.294H67.8741ZM83.1208 33.9448C83.1208 35.6228 82.6672 36.9491 81.7587 37.9229C80.9457 38.7896 79.9349 39.2225 78.7294 39.2225C77.4278 39.2225 76.4918 38.7567 75.9234 37.8232V43H73.74V32.3758C73.74 31.3219 73.7125 30.2414 73.6592 29.133H75.5794L75.7013 30.6969H75.7421C76.4703 29.5186 77.5753 28.9293 79.0582 28.9293C80.2174 28.9293 81.1852 29.3889 81.9594 30.3091C82.7326 31.2315 83.1208 32.4427 83.1208 33.9448ZM80.8964 34.025C80.8964 33.0647 80.6813 32.273 80.2492 31.6489C79.7771 31.0002 79.1432 30.6753 78.3485 30.6753C77.8098 30.6753 77.3203 30.8562 76.883 31.213C76.4447 31.5728 76.1579 32.0427 76.0239 32.6247C75.9563 32.8961 75.9225 33.1172 75.9225 33.292V34.938C75.9225 35.6547 76.1416 36.2603 76.5799 36.7559C77.0182 37.2494 77.5876 37.4971 78.2881 37.4971C79.1106 37.4971 79.7506 37.1775 80.2083 36.543C80.667 35.9066 80.8964 35.0676 80.8964 34.025ZM94.4237 33.9448C94.4237 35.6228 93.97 36.9491 93.0616 37.9229C92.2475 38.7896 91.2377 39.2225 90.0313 39.2225C88.7297 39.2225 87.7937 38.7567 87.2253 37.8232V43H85.0419V32.3758C85.0419 31.3219 85.0143 30.2414 84.961 29.133H86.8812L87.0031 30.6969H87.044C87.7712 29.5186 88.8762 28.9293 90.36 28.9293C91.5182 28.9293 92.486 29.3889 93.2624 30.3091C94.0346 31.2315 94.4237 32.4427 94.4237 33.9448ZM92.1983 34.025C92.1983 33.0647 91.9823 32.273 91.5501 31.6489C91.078 31.0002 90.4461 30.6753 89.6514 30.6753C89.1127 30.6753 88.6232 30.8562 88.1839 31.213C87.7456 31.5728 87.4599 32.0427 87.3257 32.6247C87.2591 32.8961 87.2233 33.1172 87.2233 33.292V34.938C87.2233 35.6547 87.4434 36.2603 87.8797 36.7559C88.318 37.2484 88.8874 37.4971 89.5899 37.4971C90.4132 37.4971 91.0533 37.1775 91.5101 36.543C91.9689 35.9066 92.1983 35.0676 92.1983 34.025ZM107.061 35.1612C107.061 36.3261 106.655 37.273 105.85 38.004C104.963 38.8019 103.725 39.2018 102.137 39.2018C100.671 39.2018 99.495 38.9181 98.6081 38.3495L99.113 36.5224C100.071 37.0921 101.122 37.3758 102.267 37.3758C103.091 37.3758 103.731 37.1887 104.187 36.8175C104.645 36.4453 104.877 35.9477 104.877 35.3267C104.877 34.7705 104.685 34.3047 104.309 33.9254C103.931 33.547 103.307 33.1944 102.429 32.8705C100.043 31.977 98.8488 30.6702 98.8488 28.9511C98.8488 27.8284 99.2707 26.9092 100.113 26.1905C100.954 25.4728 102.071 25.1141 103.459 25.1141C104.7 25.1141 105.733 25.331 106.553 25.7639L106.005 27.5507C105.233 27.1313 104.361 26.9215 103.387 26.9215C102.617 26.9215 102.012 27.1117 101.58 27.4901C101.216 27.8283 101.032 28.2407 101.032 28.7301C101.032 29.2699 101.242 29.7182 101.66 30.0698C102.022 30.3936 102.684 30.7464 103.641 31.1247C104.814 31.5998 105.676 32.1529 106.228 32.7883C106.784 33.4236 107.061 34.2163 107.061 35.1612ZM114.298 30.7781H111.892V35.5683C111.892 36.7867 112.316 37.3943 113.166 37.3943C113.556 37.3943 113.88 37.3613 114.136 37.2925L114.196 38.9571C113.766 39.1187 113.199 39.1998 112.498 39.1998C111.636 39.1998 110.962 38.9356 110.475 38.4071C109.991 37.8786 109.747 36.9933 109.747 35.7472V30.774H108.313V29.1289H109.747V27.3224L111.892 26.6726V29.1289H114.298V30.7781ZM125.135 33.9849C125.135 35.5014 124.703 36.7465 123.841 37.7203C122.939 38.7227 121.738 39.2224 120.242 39.2224C118.798 39.2224 117.65 38.7423 116.794 37.783C115.938 36.8216 115.51 35.6105 115.51 34.1494C115.51 32.6205 115.952 31.3682 116.834 30.3946C117.718 29.4199 118.908 28.9326 120.404 28.9326C121.846 28.9326 123.004 29.4137 123.881 30.374C124.719 31.3055 125.135 32.5085 125.135 33.9849ZM122.872 34.0353C122.872 33.1315 122.677 32.3562 122.287 31.7075C121.829 30.924 121.174 30.5323 120.325 30.5323C119.45 30.5323 118.78 30.924 118.323 31.7075C117.932 32.3562 117.737 33.1448 117.737 34.0764C117.737 34.9812 117.932 35.7584 118.323 36.4052C118.795 37.1887 119.454 37.5804 120.307 37.5804C121.141 37.5804 121.796 37.1805 122.269 36.3857C122.67 35.7215 122.872 34.9411 122.872 34.0353ZM132.235 31.0608C132.019 31.0206 131.788 31.0001 131.547 31.0001C130.779 31.0001 130.185 31.2901 129.767 31.874C129.405 32.3881 129.222 33.0379 129.222 33.8224V38.9992H127.039V32.2401C127.039 31.104 127.018 30.0676 126.976 29.134H128.877L128.957 31.0217H129.018C129.249 30.373 129.612 29.8496 130.109 29.4578C130.596 29.1052 131.121 28.9293 131.688 28.9293C131.889 28.9293 132.072 28.9437 132.233 28.9695L132.235 31.0608ZM142 33.5994C142 33.9921 141.974 34.3231 141.92 34.5936H135.37C135.395 35.5683 135.712 36.3148 136.32 36.8288C136.872 37.2875 137.586 37.5177 138.463 37.5177C139.433 37.5177 140.317 37.3635 141.113 37.052L141.455 38.5726C140.525 38.9798 139.428 39.1823 138.161 39.1823C136.637 39.1823 135.441 38.7319 134.57 37.8334C133.702 36.9337 133.267 35.7246 133.267 34.2101C133.267 32.7233 133.671 31.4844 134.481 30.4964C135.329 29.4415 136.475 28.9139 137.917 28.9139C139.333 28.9139 140.406 29.4414 141.134 30.4964C141.71 31.3323 142 32.3686 142 33.5994ZM139.918 33.0308C139.933 32.38 139.79 31.8196 139.494 31.3456C139.116 30.7349 138.535 30.4306 137.755 30.4306C137.041 30.4306 136.46 30.7277 136.017 31.324C135.654 31.798 135.438 32.3676 135.371 33.0287L139.918 33.0308Z" fill="white"/>
<path d="M66.8211 20.4191H65.6771L65.0514 18.444H62.8752L62.2781 20.4191H61.1649L63.3217 13.6939H64.653L66.8211 20.4191ZM64.8629 17.6153L64.2966 15.8592C64.2372 15.6793 64.1276 15.2608 63.9586 14.5925H63.9382C63.8685 14.8814 63.7692 15.3009 63.6197 15.8592L63.0636 17.6153H64.8629ZM72.2139 15.5703L70.3848 20.4191H69.3412L67.5717 15.5703H68.7248L69.5502 18.1345C69.6895 18.5633 69.8083 18.9725 69.8974 19.3612H69.9271C70.007 19.0126 70.1257 18.6034 70.2742 18.1345L71.0894 15.5703H72.2139ZM76.1075 20.4191L76.0276 19.8608H75.9978C75.6701 20.3101 75.1929 20.5291 74.5867 20.5291C73.7223 20.5291 73.1058 19.9204 73.1058 19.102C73.1058 17.9052 74.1391 17.2862 75.9282 17.2862V17.1968C75.9282 16.5583 75.5902 16.2385 74.9246 16.2385C74.4472 16.2385 74.0295 16.3588 73.6629 16.5984L73.4447 15.89C73.8922 15.6103 74.4484 15.4705 75.1047 15.4705C76.3664 15.4705 77.0034 16.1388 77.0034 17.4764V19.2624C77.0034 19.7518 77.0239 20.1312 77.073 20.4201L76.1075 20.4191ZM75.958 18.004C74.765 18.004 74.1689 18.2939 74.1689 18.9818C74.1689 19.4907 74.4771 19.7395 74.9042 19.7395C75.4509 19.7395 75.958 19.3211 75.958 18.7525V18.004ZM79.3938 14.7714C79.0364 14.7714 78.7578 14.4917 78.7578 14.1226C78.7578 13.7535 79.0457 13.4841 79.4143 13.4841C79.7819 13.4841 80.0799 13.7535 80.0698 14.1226C80.0698 14.5123 79.7922 14.7714 79.3938 14.7714ZM79.9509 20.4191H78.8776V15.5703H79.9509V20.4191ZM82.931 20.4191H81.8578V13.3453H82.931V20.4191ZM87.4923 20.4191L87.4124 19.8608H87.3827C87.055 20.3101 86.5778 20.5291 85.9715 20.5291C85.1072 20.5291 84.4907 19.9204 84.4907 19.102C84.4907 17.9052 85.5239 17.2862 87.313 17.2862V17.1968C87.313 16.5583 86.9751 16.2385 86.3094 16.2385C85.8322 16.2385 85.4144 16.3588 85.0477 16.5984L84.8287 15.8889C85.2762 15.6093 85.8323 15.4694 86.4887 15.4694C87.7504 15.4694 88.3873 16.1378 88.3873 17.4754V19.2613C88.3873 19.7507 88.4089 20.1301 88.456 20.4191H87.4923V20.4191ZM87.3428 18.004C86.1497 18.004 85.5537 18.2939 85.5537 18.9818C85.5537 19.4907 85.8619 19.7395 86.2889 19.7395C86.8358 19.7395 87.3428 19.3211 87.3428 18.7525V18.004ZM92.7358 20.5291C92.0506 20.5291 91.5447 20.2392 91.217 19.6706H91.1954L91.134 20.4191H90.2195C90.2492 20.0305 90.2594 19.5904 90.2594 19.1123V13.3453H91.3337V16.2797H91.3542C91.6726 15.741 92.1879 15.4716 92.8944 15.4716C94.0578 15.4716 94.873 16.4699 94.873 17.9258C94.873 19.4311 93.9677 20.5291 92.7358 20.5291ZM92.5176 16.3178C91.9 16.3178 91.3348 16.8565 91.3348 17.605V18.4533C91.3348 19.1216 91.8427 19.6706 92.4992 19.6706C93.3031 19.6706 93.7814 19.0126 93.7814 17.9649C93.7803 16.9871 93.2826 16.3178 92.5176 16.3178ZM97.5325 20.4191H96.4604V13.3453H97.5325V20.4191ZM103.375 18.2538H100.153C100.175 19.172 100.779 19.6902 101.674 19.6902C102.151 19.6902 102.588 19.61 102.976 19.4609L103.143 20.2094C102.686 20.4089 102.149 20.5086 101.523 20.5086C100.012 20.5086 99.1178 19.5503 99.1178 18.0646C99.1178 16.5779 100.033 15.4603 101.403 15.4603C102.635 15.4603 103.411 16.3784 103.411 17.7654C103.415 17.9546 103.406 18.1243 103.375 18.2538ZM102.391 17.4858C102.391 16.7373 102.013 16.2088 101.327 16.2088C100.71 16.2088 100.225 16.7475 100.153 17.4858H102.391ZM109.88 20.5291C108.469 20.5291 107.554 19.4712 107.554 18.0348C107.554 16.5378 108.488 15.4706 109.961 15.4706C111.351 15.4706 112.287 16.4782 112.287 17.9556C112.287 19.4712 111.322 20.5291 109.88 20.5291ZM109.921 16.2581C109.146 16.2581 108.649 16.9861 108.649 18.004C108.649 19.0023 109.156 19.7303 109.911 19.7303C110.666 19.7303 111.171 18.9519 111.171 17.9834C111.172 16.9964 110.676 16.2581 109.921 16.2581ZM118.056 20.4191H116.984V17.6349C116.984 16.7774 116.656 16.3476 116.01 16.3476C115.374 16.3476 114.936 16.8966 114.936 17.5351V20.4191H113.864V16.9563C113.864 16.5275 113.853 16.0679 113.824 15.5693H114.768L114.818 16.3178H114.848C115.135 15.7996 115.723 15.4695 116.378 15.4695C117.391 15.4695 118.056 16.2479 118.056 17.5146V20.4191H118.056ZM125.079 16.3784H123.898V18.7329C123.898 19.3324 124.106 19.6316 124.523 19.6316C124.712 19.6316 124.872 19.611 125 19.5812L125.03 20.3996C124.821 20.4799 124.541 20.5199 124.196 20.5199C123.35 20.5199 122.845 20.0511 122.845 18.8234V16.3784H122.14V15.5703H122.845V14.682L123.898 14.3622V15.5693H125.079V16.3784ZM130.762 20.4191H129.688V17.6554C129.688 16.7876 129.36 16.3486 128.714 16.3486C128.158 16.3486 127.642 16.728 127.642 17.4961V20.4191H126.568V13.3453H127.642V16.2581H127.662C128 15.7297 128.488 15.4695 129.114 15.4695C130.137 15.4695 130.762 16.2674 130.762 17.5351V20.4191ZM136.246 18.2538H133.026C133.046 19.172 133.65 19.6902 134.546 19.6902C135.024 19.6902 135.46 19.61 135.847 19.4609L136.015 20.2094C135.558 20.4089 135.021 20.5086 134.395 20.5086C132.883 20.5086 131.989 19.5503 131.989 18.0646C131.989 16.5779 132.905 15.4603 134.274 15.4603C135.506 15.4603 136.282 16.3784 136.282 17.7654C136.286 17.9546 136.276 18.1243 136.246 18.2538ZM135.262 17.4858C135.262 16.7373 134.885 16.2088 134.199 16.2088C133.582 16.2088 133.096 16.7475 133.026 17.4858H135.262Z" fill="white"/>
</svg>
