<svg width="99" height="16" viewBox="0 0 99 16" fill="none" xmlns="http://www.w3.org/2000/svg">
<path d="M98.2014 6.04621C98.0915 5.70813 97.7901 5.46802 97.4335 5.43605L92.5897 4.99849L90.6743 0.538446C90.5331 0.211582 90.2114 0 89.8541 0C89.4967 0 89.1751 0.211582 89.0338 0.53921L87.1185 4.99849L82.2739 5.43605C81.9179 5.46878 81.6173 5.70813 81.5068 6.04621C81.3963 6.38428 81.4984 6.75509 81.7676 6.98884L85.429 10.1833L84.3493 14.9147C84.2703 15.2626 84.406 15.6222 84.6962 15.8308C84.8521 15.9429 85.0346 16 85.2186 16C85.3772 16 85.5346 15.9575 85.6758 15.8734L89.8541 13.389L94.0308 15.8734C94.3364 16.0563 94.7217 16.0396 95.0112 15.8308C95.3015 15.6215 95.4371 15.2618 95.3581 14.9147L94.2784 10.1833L97.9398 6.98947C98.209 6.75509 98.3119 6.38492 98.2014 6.04621Z" fill="#ADB7C2"/>
<path d="M78.0861 6.04621C77.9763 5.70813 77.6749 5.46802 77.3183 5.43605L72.4745 4.99849L70.5591 0.538446C70.4179 0.211582 70.0962 0 69.7389 0C69.3815 0 69.0599 0.211582 68.9186 0.53921L67.0032 4.99849L62.1587 5.43605C61.8027 5.46878 61.5021 5.70813 61.3916 6.04621C61.2811 6.38428 61.3831 6.75509 61.6524 6.98884L65.3137 10.1833L64.2341 14.9147C64.1551 15.2626 64.2908 15.6222 64.581 15.8308C64.7369 15.9429 64.9194 16 65.1034 16C65.262 16 65.4194 15.9575 65.5606 15.8734L69.7389 13.389L73.9156 15.8734C74.2212 16.0563 74.6065 16.0396 74.896 15.8308C75.1863 15.6215 75.3219 15.2618 75.2428 14.9147L74.1632 10.1833L77.8246 6.98947C78.0938 6.75509 78.1966 6.38492 78.0861 6.04621Z" fill="#FFAB2E"/>
<path d="M36.8537 6.04621C36.7438 5.70813 36.4424 5.46802 36.0858 5.43605L31.242 4.99849L29.3267 0.538446C29.1854 0.211582 28.8638 0 28.5064 0C28.1491 0 27.8274 0.211582 27.6862 0.53921L25.7708 4.99849L20.9262 5.43605C20.5703 5.46878 20.2697 5.70813 20.1592 6.04621C20.0487 6.38428 20.1507 6.75509 20.42 6.98884L24.0813 10.1833L23.0017 14.9147C22.9227 15.2626 23.0584 15.6222 23.3485 15.8308C23.5045 15.9429 23.6869 16 23.8709 16C24.0296 16 24.187 15.9575 24.3282 15.8734L28.5064 13.389L32.6831 15.8734C32.9888 16.0563 33.3741 16.0396 33.6636 15.8308C33.9538 15.6215 34.0894 15.2618 34.0104 14.9147L32.9308 10.1833L36.5921 6.98947C36.8614 6.75509 36.9642 6.38492 36.8537 6.04621Z" fill="#FFAB2E"/>
<path d="M56.9689 6.04621C56.8591 5.70813 56.5577 5.46802 56.2011 5.43605L51.3573 4.99849L49.4419 0.538446C49.3007 0.211582 48.979 0 48.6217 0C48.2643 0 47.9427 0.211582 47.8014 0.53921L45.8861 4.99849L41.0415 5.43605C40.6855 5.46878 40.3849 5.70813 40.2744 6.04621C40.1639 6.38428 40.2659 6.75509 40.5352 6.98884L44.1965 10.1833L43.1169 14.9147C43.0379 15.2626 43.1736 15.6222 43.4638 15.8308C43.6197 15.9429 43.8022 16 43.9862 16C44.1448 16 44.3022 15.9575 44.4434 15.8734L48.6217 13.389L52.7984 15.8734C53.104 16.0563 53.4893 16.0396 53.7788 15.8308C54.0691 15.6215 54.2047 15.2618 54.1256 14.9147L53.046 10.1833L56.7073 6.98947C56.9766 6.75509 57.0794 6.38492 56.9689 6.04621Z" fill="#FFAB2E"/>
<path d="M16.7385 6.04621C16.6286 5.70813 16.3272 5.46802 15.9706 5.43605L11.1268 4.99849L9.21143 0.538446C9.0702 0.211582 8.74856 0 8.39119 0C8.03383 0 7.71219 0.211582 7.57096 0.53921L5.65559 4.99849L0.811012 5.43605C0.455057 5.46878 0.154416 5.70813 0.0439161 6.04621C-0.0665837 6.38428 0.0354654 6.75509 0.304736 6.98884L3.96608 10.1833L2.88644 14.9147C2.80743 15.2626 2.94316 15.6222 3.2333 15.8308C3.38925 15.9429 3.57171 16 3.75571 16C3.91435 16 4.07172 15.9575 4.21295 15.8734L8.39119 13.389L12.5679 15.8734C12.8735 16.0563 13.2588 16.0396 13.5483 15.8308C13.8386 15.6215 13.9742 15.2618 13.8952 14.9147L12.8155 10.1833L16.4769 6.98947C16.7462 6.75509 16.849 6.38492 16.7385 6.04621Z" fill="#FFAB2E"/>
</svg>
