<svg width="124" height="24" viewBox="0 0 124 24" fill="none" xmlns="http://www.w3.org/2000/svg">
<path d="M0.84375 23V0.921875H7.76562C12.2656 0.921875 15.5625 3.28125 15.5625 7.45312C15.5625 11.5781 12.2656 13.8438 7.76562 13.8438H4.78125V23H0.84375ZM4.78125 10.1406H7.76562C10.4844 10.1406 11.625 9.20312 11.625 7.45312C11.625 5.65625 10.4531 4.625 7.76562 4.625H4.78125V10.1406ZM18.1094 23V7.39062H21.8281V10.0156C22.5 8.125 24.2656 7.0625 26.0156 7.0625C27.0469 7.0625 28.125 7.42188 28.875 8.1875L27.1406 11.3125C26.625 10.9688 26.0469 10.7812 25.4375 10.7812C23.6562 10.7812 21.7969 12.4375 21.7969 16.4062V23H18.1094ZM30.8594 4.4375V0.921875H34.8594V4.4375H30.8594ZM30.9531 23V7.39062H34.7656V23H30.9531ZM39.3594 23L39.3281 7.39062H43.0156V9.34375C44.0312 7.60938 45.6406 7.0625 47.2344 7.0625C49 7.0625 50.9219 7.73438 51.8438 9.8125C53.0938 7.79688 54.9531 7.0625 56.8438 7.0625C60.8125 7.0625 62.4375 10.3281 62.4375 13.625V23H58.625V14.1094C58.625 12.1875 58.0469 10.6094 56.0781 10.6094C54.0156 10.6094 52.8125 12.3438 52.8125 14.4219V23H49V14.0469C49 12.1562 48.4219 10.6094 46.4688 10.6094C44.3906 10.6094 43.1719 12.3438 43.1719 14.4219V23H39.3594ZM73.0781 23.3125C67.7031 23.3125 65.1719 19.4531 65.1719 15.25C65.1719 11.1875 67.5469 7.0625 72.8281 7.0625C78.2969 7.0625 80.0625 11.4531 80.0625 14.9375C80.0625 15.5781 80 16.2188 79.9219 16.4375H69.2031C69.5312 18.4844 70.6562 19.8594 73.1094 19.8594C74.5156 19.8594 75.7656 19.4219 76.8594 18.2031L79.4844 20.5C77.7812 22.3906 75.7031 23.3125 73.0781 23.3125ZM69.2031 13.6875H76.3125C76.3125 13.3438 76.2812 13.0156 76.1875 12.7031C75.7969 11.0938 74.4531 10.2656 72.7969 10.2656C70.5469 10.2656 69.5625 11.7344 69.2031 13.6875Z" fill="#222D39"/>
<path d="M83.8438 23V0.921875H87.8125V12.4375L98.5625 0.921875H103.875L95.0469 9.96875L104.047 23H99.1094L92.2969 12.625L87.8125 17.2656V23H83.8438ZM106.484 4.4375V0.921875H110.484V4.4375H106.484ZM106.578 23V7.39062H110.391V23H106.578ZM120.469 23.3125C117.422 23.3125 115.594 21.5312 115.594 18.6875V10.5781H113.078V7.39062H115.656V3.51562L119.406 0.796875V7.39062H123.312V10.5781H119.406V18.0156C119.406 19.5156 120.141 19.9531 121.141 19.9531C121.938 19.9531 122.797 19.6406 123.312 19.3906V22.8438C122.734 23.0625 121.609 23.3125 120.469 23.3125Z" fill="#008AFF"/>
</svg>
