<svg width="193" height="55" viewBox="0 0 193 55" fill="none" xmlns="http://www.w3.org/2000/svg">
<rect width="193" height="55" rx="3" fill="#222D39"/>
<path fill-rule="evenodd" clip-rule="evenodd" d="M70.3636 26.1179C70.3636 22.2701 73.7215 19.1372 77.7167 19.1372C79.9253 19.1372 81.4969 19.9725 82.6828 21.0604L81.2865 22.4051C80.439 21.6388 79.2897 21.0442 77.7151 21.0442C74.7977 21.0442 72.5174 23.3065 72.5174 26.1164C72.5174 28.9263 74.7977 31.1915 77.7136 31.1915C79.6052 31.1915 80.6814 30.4604 81.3719 29.7939C81.9374 29.2493 82.3078 28.4668 82.4511 27.3936H77.7167V25.491H84.3808C84.4509 25.8316 84.4875 26.2397 84.4875 26.6816C84.4875 28.11 84.0805 29.882 82.7712 31.1431C81.4969 32.4203 79.872 33.1015 77.7151 33.1015C73.7185 33.1015 70.3605 29.9716 70.3605 26.1208L70.3636 26.1179ZM89.8743 24.1096C87.2937 24.1096 85.1872 26.0004 85.1872 28.6033C85.1872 31.193 87.2922 33.0971 89.8743 33.0971C92.4564 33.0971 94.5584 31.1901 94.5584 28.6019C94.5584 25.999 92.4549 24.1081 89.8743 24.1096ZM89.8743 31.3295C88.4613 31.3295 87.2404 30.2064 87.2404 28.6048C87.2404 26.987 88.4598 25.88 89.8743 25.88C91.2873 25.88 92.5067 26.9855 92.5067 28.6048C92.5067 30.205 91.2888 31.3295 89.8743 31.3295ZM100.095 24.1096C97.514 24.1096 95.4105 26.0004 95.4105 28.6033C95.4105 31.193 97.514 33.0971 100.095 33.0971C102.675 33.0971 104.779 31.1901 104.779 28.6019C104.779 25.999 102.677 24.1081 100.095 24.1096ZM100.095 31.3295C98.6816 31.3295 97.4606 30.2064 97.4606 28.6048C97.4606 26.987 98.6801 25.88 100.095 25.88C101.508 25.88 102.729 26.9855 102.729 28.6048C102.729 30.205 101.508 31.3295 100.095 31.3295ZM112.638 24.3826V25.1137H112.568C112.109 24.5837 111.225 24.1081 110.112 24.1081C107.778 24.1081 105.637 26.0841 105.637 28.6224C105.637 31.1401 107.777 33.1 110.112 33.1C111.225 33.1 112.109 32.6244 112.568 32.0797H112.638V32.7257C112.638 34.4448 111.684 35.3652 110.146 35.3652C108.89 35.3652 108.112 34.4962 107.794 33.7665L106.007 34.4815C106.519 35.6721 107.882 37.1372 110.144 37.1372C112.546 37.1372 114.58 35.7734 114.58 32.4541V24.3812L112.638 24.3826ZM110.287 31.3295C108.874 31.3295 107.687 30.1874 107.687 28.6224C107.687 27.0398 108.873 25.8815 110.287 25.8815C111.684 25.8815 112.78 27.0384 112.78 28.6224C112.781 30.1874 111.685 31.3295 110.287 31.3295ZM115.996 19.6143H118.048V32.827H115.996V19.6143ZM123.671 31.3295C122.628 31.3295 121.884 30.8685 121.41 29.9686L127.65 27.4802L127.436 26.9694C127.048 25.9667 125.863 24.1096 123.44 24.1096C121.037 24.1096 119.038 25.9314 119.038 28.6048C119.038 31.1225 121.018 33.0985 123.671 33.0985C125.811 33.0985 127.048 31.8404 127.561 31.1064L125.969 30.0861C125.437 30.8363 124.712 31.331 123.671 31.3295ZM123.511 25.8463C124.323 25.8463 125.012 26.2383 125.242 26.7991L121.069 28.4683C121.017 26.7315 122.466 25.8463 123.511 25.8463ZM136.653 19.6143H131.748V32.827H133.795V27.8223H136.654C138.924 27.8223 141.156 26.2397 141.156 23.7176C141.156 21.1998 138.926 19.6158 136.657 19.6158L136.653 19.6143ZM136.706 25.9828H133.795V21.4524H136.706C138.237 21.4524 139.108 22.6753 139.108 23.7176C139.108 24.7423 138.237 25.9828 136.706 25.9828ZM144.331 32.827V19.6143H142.284V32.827H144.331ZM153.527 32.8035V27.7386C153.527 25.3927 151.707 24.0846 149.358 24.0846C147.878 24.0846 146.343 24.7144 145.707 26.1076L147.524 26.8372C147.913 26.1076 148.635 25.8683 149.396 25.8683C150.454 25.8683 151.53 26.4805 151.547 27.5698V27.7063C151.176 27.5023 150.384 27.1954 149.411 27.1954C147.452 27.1954 145.459 28.2319 145.459 30.1697C145.459 31.9388 147.065 33.0765 148.865 33.0765C150.243 33.0765 151.001 32.482 151.476 31.7861H151.547V32.8064H153.525L153.527 32.8035ZM149.114 31.3266C148.443 31.3266 147.507 31.0036 147.507 30.2065C147.507 29.1861 148.673 28.7927 149.679 28.7927C150.58 28.7927 151.002 28.9791 151.551 29.2346C151.394 30.4208 150.353 31.3119 149.114 31.3266ZM160.726 24.3738L158.378 30.1007H158.308L155.872 24.3738H153.667L157.319 32.3807L155.235 36.8333H157.371L163 24.3738H160.726Z" fill="white"/>
<path fill-rule="evenodd" clip-rule="evenodd" d="M30.4779 14.3988C30.1744 14.713 30 15.1964 30 15.8247V38.1713C30 38.7996 30.1744 39.283 30.4892 39.5862L30.5715 39.6532L43.5723 27.1318V26.8505L30.5601 14.3319L30.4779 14.3988Z" fill="url(#paint0_linear_396_55)"/>
<path fill-rule="evenodd" clip-rule="evenodd" d="M47.8981 31.3219L43.5616 27.144V26.8517L47.8995 22.6738L47.9931 22.7298L53.1236 25.5378C54.5927 26.3354 54.5927 27.6493 53.1236 28.4578L47.9931 31.2659C47.9917 31.2659 47.8981 31.3219 47.8981 31.3219Z" fill="url(#paint1_linear_396_55)"/>
<path fill-rule="evenodd" clip-rule="evenodd" d="M47.9919 31.2659L43.5619 26.9979L30.4788 39.5984C30.9567 40.0928 31.7607 40.1488 32.6598 39.6653L47.9919 31.2659Z" fill="url(#paint2_linear_396_55)"/>
<path fill-rule="evenodd" clip-rule="evenodd" d="M47.9919 22.7313L32.6598 14.3428C31.7622 13.8484 30.9567 13.9153 30.4788 14.4097L43.5604 26.9979L47.9919 22.7313Z" fill="url(#paint3_linear_396_55)"/>
<path opacity="0.2" fill-rule="evenodd" clip-rule="evenodd" d="M47.8978 31.1757L32.6707 39.5083C31.8199 39.9795 31.0612 39.9467 30.572 39.5192L30.4897 39.5984L30.572 39.6654C31.0612 40.0915 31.8199 40.1256 32.6707 39.6544L48.0028 31.2659L47.8978 31.1757Z" fill="#222D39"/>
<path opacity="0.12" fill-rule="evenodd" clip-rule="evenodd" d="M53.1217 28.3117L47.8861 31.1758L47.9797 31.2659L53.1103 28.4579C53.8449 28.0536 54.2065 27.5264 54.2065 26.9979C54.1597 27.4813 53.7867 27.9416 53.1217 28.3117Z" fill="#222D39"/>
<path opacity="0.25" fill-rule="evenodd" clip-rule="evenodd" d="M32.6589 14.4888L53.1215 25.6854C53.7866 26.0446 54.1595 26.5158 54.2177 26.9992C54.2177 26.472 53.8561 25.9435 53.1215 25.5392L32.6589 14.3427C31.1898 13.5342 30 14.2075 30 15.8245V15.9707C30 14.3536 31.1898 13.6912 32.6589 14.4888Z" fill="white"/>
<defs>
<linearGradient id="paint0_linear_396_55" x1="42.4049" y1="15.5845" x2="21.687" y2="21.3162" gradientUnits="userSpaceOnUse">
<stop stop-color="#00A0FF"/>
<stop offset="0.007" stop-color="#00A1FF"/>
<stop offset="0.26" stop-color="#00BEFF"/>
<stop offset="0.512" stop-color="#00D2FF"/>
<stop offset="0.76" stop-color="#00DFFF"/>
<stop offset="1" stop-color="#00E3FF"/>
</linearGradient>
<linearGradient id="paint1_linear_396_55" x1="55.0353" y1="26.9985" x2="29.6437" y2="26.9985" gradientUnits="userSpaceOnUse">
<stop stop-color="#FFE000"/>
<stop offset="0.409" stop-color="#FFBD00"/>
<stop offset="0.775" stop-color="#FFA500"/>
<stop offset="1" stop-color="#FF9C00"/>
</linearGradient>
<linearGradient id="paint2_linear_396_55" x1="45.583" y1="29.3197" x2="29.7764" y2="56.9419" gradientUnits="userSpaceOnUse">
<stop stop-color="#FF3A44"/>
<stop offset="1" stop-color="#C31162"/>
</linearGradient>
<linearGradient id="paint3_linear_396_55" x1="27.1855" y1="6.96517" x2="34.2371" y2="19.3013" gradientUnits="userSpaceOnUse">
<stop stop-color="#32A071"/>
<stop offset="0.069" stop-color="#2DA771"/>
<stop offset="0.476" stop-color="#15CF74"/>
<stop offset="0.801" stop-color="#06E775"/>
<stop offset="1" stop-color="#00F076"/>
</linearGradient>
</defs>
</svg>
