<svg width="61" height="60" viewBox="0 0 61 60" fill="none" xmlns="http://www.w3.org/2000/svg">
<rect x="0.5" width="60" height="60" rx="3" fill="#FFAB2E"/>
<g clip-path="url(#clip0_396_107)">
<path d="M23.2084 33.5794L24.3903 33.9915C26.6801 34.7898 26.7536 38.0781 24.4516 38.9493C24.4516 39.5745 23.9896 39.9699 23.4839 39.9699C22.9832 39.9699 22.5161 39.5804 22.5161 38.9493C21.5275 38.5751 20.8216 37.6103 20.8216 36.4816C20.8216 35.9412 21.2548 35.5031 21.7893 35.5031C22.3238 35.5031 22.757 35.9412 22.757 36.4816C22.757 36.8549 23.0575 37.1587 23.4267 37.1587H23.541C24.2966 37.1587 24.4682 36.0887 23.7593 35.8415L22.5774 35.4294C20.2877 34.6312 20.2141 31.3429 22.5161 30.4716C22.5161 29.8465 22.9781 29.4511 23.4839 29.4511C23.9846 29.4511 24.4516 29.8406 24.4516 30.4716C25.4403 30.8459 26.1462 31.8106 26.1462 32.9393C26.1462 33.4798 25.7129 33.9178 25.1784 33.9178C24.644 33.9178 24.2107 33.4798 24.2107 32.9393C24.2107 32.566 23.9103 32.2623 23.5411 32.2623H23.4267C22.6711 32.2622 22.4995 33.3322 23.2084 33.5794ZM31.4677 34.7105C31.4677 39.1617 27.8862 42.7831 23.4839 42.7831C19.0816 42.7831 15.5 39.1618 15.5 34.7105C15.5 30.2592 19.0816 26.6379 23.4839 26.6379C27.8862 26.6379 31.4677 30.2592 31.4677 34.7105ZM29.5323 34.7105C29.5323 31.3383 26.819 28.5949 23.4839 28.5949C20.1487 28.5949 17.4355 31.3383 17.4355 34.7105C17.4355 38.0827 20.1487 40.8261 23.4839 40.8261C26.819 40.8261 29.5323 38.0827 29.5323 34.7105ZM44.5323 40.8261H43.8669V24.6809C43.8669 24.1405 43.4337 23.7024 42.8992 23.7024C42.3647 23.7024 41.9314 24.1405 41.9314 24.6809V40.8261H37.0323V28.5949C37.0323 28.0545 36.599 27.6164 36.0645 27.6164C35.53 27.6164 35.0968 28.0545 35.0968 28.5949V40.8261H30.9839C30.4494 40.8261 30.0161 41.2641 30.0161 41.8046C30.0161 42.345 30.4494 42.7831 30.9839 42.7831H44.5323C45.0668 42.7831 45.5 42.345 45.5 41.8046C45.5 41.2641 45.0668 40.8261 44.5323 40.8261ZM30.398 27.7579L33.8569 24.2606L35.3803 25.8009C35.7582 26.183 36.3709 26.183 36.7488 25.8009L41.9314 20.5607V21.0116C41.9314 21.552 42.3647 21.99 42.8992 21.99C43.4337 21.99 43.8669 21.552 43.8669 21.0116C43.8669 17.9063 43.8715 18.1699 43.8562 18.0603C43.8094 17.7264 43.5924 17.4296 43.2692 17.2943C43.0298 17.1941 43.104 17.2199 40.1169 17.2199C39.5824 17.2199 39.1492 17.6579 39.1492 18.1984C39.1492 18.7388 39.5824 19.1769 40.1169 19.1769H40.5629L36.0645 23.7252L34.5411 22.1849C34.1632 21.8028 33.5504 21.8028 33.1725 22.1849L29.0294 26.3741C28.6514 26.7562 28.6514 27.3757 29.0294 27.7578C29.4074 28.1401 30.0201 28.14 30.398 27.7579Z" fill="white"/>
</g>
<defs>
<clipPath id="clip0_396_107">
<rect width="30" height="26" fill="white" transform="translate(15.5 17)"/>
</clipPath>
</defs>
</svg>
