<svg width="61" height="60" viewBox="0 0 61 60" fill="none" xmlns="http://www.w3.org/2000/svg">
<rect x="0.5" width="60" height="60" rx="3" fill="#36CD77"/>
<g clip-path="url(#clip0_396_116)">
<path d="M42.5968 17.2721H25.3358C23.735 17.2721 22.4326 18.5908 22.4326 20.2116V23.2585L18.0854 27.6601C17.3543 28.4004 16.9516 29.3846 16.9516 30.4315V37.6252C16.098 38.004 15.5 38.8672 15.5 39.8696V41.2781C15.5 42.6288 16.5853 43.7277 17.9194 43.7277H24.3075C25.6416 43.7277 26.7269 42.6288 26.7269 41.2781V39.8696C26.7269 39.0937 26.3683 38.4013 25.8105 37.9522L29.1886 32.9886C29.9742 31.8343 29.8338 30.2771 28.8548 29.2857C27.9152 28.3344 26.4665 28.1591 25.332 28.8595L24.368 29.4547V20.2116C24.368 19.6714 24.8022 19.2318 25.3358 19.2318H42.5968C43.1304 19.2318 43.5645 19.6714 43.5645 20.2116V31.786C43.5645 32.3262 43.1304 32.7658 42.5968 32.7658H31.4476C30.9132 32.7658 30.4799 33.2045 30.4799 33.7456C30.4799 34.2868 30.9132 34.7255 31.4476 34.7255H42.5968C44.1976 34.7255 45.5 33.4068 45.5 31.786V20.2116C45.5 18.5908 44.1976 17.2721 42.5968 17.2721ZM24.7914 41.2781C24.7914 41.5483 24.5743 41.7681 24.3075 41.7681H17.9194C17.6526 41.7681 17.4355 41.5483 17.4355 41.2781V39.8696C17.4355 39.5995 17.6526 39.3797 17.9194 39.3797H24.3075C24.5743 39.3797 24.7914 39.5995 24.7914 39.8696V41.2781ZM21.6494 31.1331C21.1931 31.4148 21.0487 32.0177 21.327 32.4798C21.6052 32.9418 22.2007 33.0879 22.657 32.8063L26.3396 30.5327C27.1986 30.002 28.1637 31.0408 27.5949 31.8766L23.8223 37.42H18.8871V30.4315C18.8871 29.908 19.0884 29.4159 19.454 29.0458L22.4326 26.0299V30.6495L21.6494 31.1331ZM30.9263 24.5231V20.8342C30.9263 20.2931 30.493 19.8544 29.9585 19.8544H26.3151C25.7807 19.8544 25.3474 20.2931 25.3474 20.8342V24.5231C25.3474 25.0643 25.7807 25.503 26.3151 25.503H29.9585C30.493 25.503 30.9263 25.0643 30.9263 24.5231ZM28.9908 23.5433H27.2829V21.8141H28.9908V23.5433ZM39.4315 28.4543C38.897 28.4543 38.4637 28.0156 38.4637 27.4744C38.4637 26.9332 38.897 26.4946 39.4315 26.4946H40.5245C41.059 26.4946 41.4923 26.9332 41.4923 27.4744C41.4923 28.0156 41.059 28.4543 40.5245 28.4543H39.4315ZM28.9908 27.4744C28.9908 26.9332 29.4241 26.4946 29.9585 26.4946H32.1446C32.6791 26.4946 33.1124 26.9332 33.1124 27.4744C33.1124 28.0156 32.6791 28.4543 32.1446 28.4543H29.9585C29.4241 28.4543 28.9908 28.0156 28.9908 27.4744ZM34.695 28.4543C34.1605 28.4543 33.7272 28.0156 33.7272 27.4744C33.7272 26.9332 34.1605 26.4946 34.695 26.4946H36.881C37.4155 26.4946 37.8488 26.9332 37.8488 27.4744C37.8488 28.0156 37.4155 28.4543 36.881 28.4543H34.695Z" fill="white"/>
</g>
<defs>
<clipPath id="clip0_396_116">
<rect width="30" height="27" fill="white" transform="translate(15.5 17)"/>
</clipPath>
</defs>
</svg>
