<svg width="82" height="80" viewBox="0 0 82 80" fill="none" xmlns="http://www.w3.org/2000/svg">
<circle cx="25" cy="25" r="25" fill="#EBF6FF"/>
<g clip-path="url(#clip0_396_168)">
<path d="M55.1957 48.7615C55.8869 48.408 56.657 48.2211 57.4559 48.2211C58.7798 48.2211 60.0245 48.7351 60.9628 49.6685L62.9826 47.6488C67.9811 49.4009 73.7623 48.2792 77.7582 44.2835C81.1205 40.9213 82.4464 36.2954 81.7386 31.9349C81.6606 31.4547 81.3206 31.0586 80.8578 30.9092C80.395 30.7596 79.887 30.8812 79.5431 31.2252L76.544 34.2243C74.1017 36.6667 70.1416 36.6667 67.6993 34.2243C65.2567 31.782 65.2567 27.8219 67.6993 25.3796L70.6984 22.3805C71.0424 22.0364 71.165 21.5284 71.0152 21.0653C70.8656 20.6021 70.4689 20.263 69.9885 20.185C65.6282 19.4772 61.0021 20.8031 57.6401 24.1653C53.5848 28.2206 52.4934 34.114 54.3585 39.1626L49.9778 43.5434L55.1957 48.7615Z" fill="#74BFFF"/>
<path d="M47.2128 56.6997L42.0168 51.5037L23.8477 69.6726C21.4852 72.0351 21.4852 75.8654 23.8477 78.228C26.2102 80.5905 30.0405 80.5905 32.403 78.228L48.066 62.5652C46.4862 60.977 46.2015 58.5793 47.2128 56.6997Z" fill="#74BFFF"/>
<path d="M58.802 51.8488C58.4305 51.4773 57.9433 51.2914 57.4564 51.2914C56.9694 51.2914 56.4822 51.4773 56.1107 51.8488L55.0261 52.9335L35.7052 33.6125L36.6083 32.7095C37.4311 31.8868 37.329 30.5222 36.3911 29.8315L28.5081 24.026C27.7506 23.4682 26.6993 23.5474 26.0341 24.2127L22.687 27.5599C22.0218 28.2252 21.9426 29.2766 22.5003 30.034L28.3057 37.9169C28.9963 38.8546 30.3602 38.9578 31.1836 38.1341L32.0867 37.2308L51.4076 56.5517L50.2466 57.7127C49.5034 58.4559 49.5034 59.6607 50.2466 60.404L68.0707 78.228C70.4332 80.5905 74.2635 80.5905 76.626 78.228C78.9885 75.8655 78.9885 72.0351 76.626 69.6726L58.802 51.8488Z" fill="#008AFF"/>
</g>
<defs>
<clipPath id="clip0_396_168">
<rect width="60" height="60" fill="white" transform="translate(22 20)"/>
</clipPath>
</defs>
</svg>
