<svg width="61" height="60" viewBox="0 0 61 60" fill="none" xmlns="http://www.w3.org/2000/svg">
<rect x="0.5" width="60" height="60" rx="3" fill="#008AFF"/>
<g clip-path="url(#clip0_396_125)">
<path d="M42.5968 23.014H33.8871C33.3526 23.014 32.9194 23.4473 32.9194 23.9818C32.9194 24.5163 33.3526 24.9495 33.8871 24.9495H37.8275C38.2531 27.9118 40.6023 30.2609 43.5645 30.6865V35.6641C40.6022 36.0897 38.2531 38.4388 37.8275 41.4011H23.1725C22.7469 38.4388 20.3977 36.0897 17.4355 35.6641V30.6865C20.3978 30.2609 22.7469 27.9118 23.1725 24.9495H27.1129C27.6474 24.9495 28.0806 24.5163 28.0806 23.9818C28.0806 23.4473 27.6474 23.014 27.1129 23.014H18.4032C16.8023 23.014 15.5 24.3164 15.5 25.9172V40.4334C15.5 42.0343 16.8023 43.3366 18.4032 43.3366H42.5968C44.1977 43.3366 45.5 42.0343 45.5 40.4334V25.9172C45.5 24.3164 44.1977 23.014 42.5968 23.014ZM39.7909 24.9495H42.5968C43.1304 24.9495 43.5645 25.3837 43.5645 25.9172V28.7231C41.6714 28.3373 40.1768 26.8426 39.7909 24.9495ZM18.4032 24.9495H21.2091C20.8232 26.8426 19.3286 28.3373 17.4355 28.7231V25.9172C17.4355 25.3836 17.8696 24.9495 18.4032 24.9495ZM17.4355 40.4334V37.6275C19.3286 38.0133 20.8232 39.508 21.2091 41.4011H18.4032C17.8696 41.4011 17.4355 40.967 17.4355 40.4334ZM42.5968 41.4011H39.7909C40.1768 39.508 41.6714 38.0133 43.5645 37.6275V40.4334C43.5645 40.967 43.1304 41.4011 42.5968 41.4011ZM25.1774 33.1753C25.1774 36.1102 27.5651 38.4979 30.5 38.4979C33.4349 38.4979 35.8226 36.1102 35.8226 33.1753C35.8226 30.2404 33.4349 27.8527 30.5 27.8527C27.5651 27.8527 25.1774 30.2404 25.1774 33.1753ZM33.8871 33.1753C33.8871 35.043 32.3677 36.5624 30.5 36.5624C28.6323 36.5624 27.1129 35.043 27.1129 33.1753C27.1129 31.3076 28.6323 29.7882 30.5 29.7882C32.3677 29.7882 33.8871 31.3076 33.8871 33.1753ZM22.7581 32.2076C23.2926 32.2076 23.7258 32.6408 23.7258 33.1753C23.7258 33.7098 23.2926 34.143 22.7581 34.143H22.2742C21.7397 34.143 21.3065 33.7098 21.3065 33.1753C21.3065 32.6408 21.7397 32.2076 22.2742 32.2076H22.7581ZM38.2419 34.143C37.7074 34.143 37.2742 33.7098 37.2742 33.1753C37.2742 32.6408 37.7074 32.2076 38.2419 32.2076H38.7258C39.2603 32.2076 39.6935 32.6408 39.6935 33.1753C39.6935 33.7098 39.2603 34.143 38.7258 34.143H38.2419ZM27.8198 20.3112C27.4418 19.9333 27.4418 19.3205 27.8198 18.9426L29.8157 16.9466C30.1936 16.5687 30.8064 16.5687 31.1843 16.9466L33.1803 18.9426C33.5582 19.3205 33.5582 19.9333 33.1803 20.3112C32.8023 20.6891 32.1896 20.6891 31.8117 20.3112L31.4677 19.9673V24.5866C31.4677 25.1211 31.0345 25.5543 30.5 25.5543C29.9655 25.5543 29.5323 25.1211 29.5323 24.5866V19.9673L29.1883 20.3112C28.8104 20.6891 28.1977 20.6891 27.8198 20.3112Z" fill="white"/>
</g>
<defs>
<clipPath id="clip0_396_125">
<rect width="30" height="30" fill="white" transform="translate(15.5 15)"/>
</clipPath>
</defs>
</svg>
