<svg width="61" height="60" viewBox="0 0 61 60" fill="none" xmlns="http://www.w3.org/2000/svg">
<rect x="0.5" width="60" height="60" rx="3" fill="#7054FF"/>
<g clip-path="url(#clip0_396_98)">
<path d="M42.2953 26.6203C43.8835 26.6203 45.1756 25.3186 45.1756 23.7187V18.9501C45.1756 17.6268 44.2873 16.4715 43.0154 16.1406L31.3702 13.111C30.8015 12.963 30.2001 12.963 29.6312 13.111L17.986 16.1406C16.7142 16.4714 15.8259 17.6267 15.8259 18.9501V23.7187C15.8259 25.3186 17.118 26.6203 18.7062 26.6203H19.2597V39.6928H18.5477C17.0469 39.6928 15.8259 40.9228 15.8259 42.4347V44.2581C15.8259 45.77 17.0469 47.0001 18.5477 47.0001H42.4538C43.9546 47.0001 45.1756 45.77 45.1756 44.2581V42.4347C45.1756 40.9228 43.9546 39.6928 42.4538 39.6928H41.7418V26.6203H42.2953ZM18.0034 23.7187V18.9501C18.0034 18.6271 18.2202 18.3452 18.5305 18.2645C31.0406 15.0099 30.3725 15.1171 30.8259 15.235L42.4711 18.2645C42.7814 18.3453 42.9982 18.6272 42.9982 18.9501V23.7187C42.9982 24.1091 42.6829 24.4267 42.2954 24.4267C41.9778 24.4267 19.0188 24.4267 18.7063 24.4267C18.3187 24.4267 18.0034 24.1091 18.0034 23.7187ZM33.381 39.6927V26.6203H35.9812V39.6928H33.381V39.6927ZM25.0204 39.6927V26.6203H27.6205V39.6928H25.0204V39.6927ZM29.7979 26.6203H31.2036V39.6928H29.7979V26.6203ZM21.4372 26.6203H22.8429V39.6928H21.4372V26.6203ZM42.9982 42.4347V44.2581C42.9982 44.5604 42.7539 44.8064 42.4538 44.8064H18.5477C18.2476 44.8064 18.0034 44.5604 18.0034 44.2581V42.4347C18.0034 42.1323 18.2476 41.8863 18.5477 41.8863H42.4538C42.7539 41.8863 42.9982 42.1323 42.9982 42.4347ZM39.5643 39.6927H38.1586V26.6203H39.5643V39.6927ZM30.5008 23.2821C32.2787 23.2821 33.7252 21.8249 33.7252 20.0338C33.7252 18.2426 32.2787 16.7854 30.5008 16.7854C28.7228 16.7854 27.2763 18.2426 27.2763 20.0338C27.2763 21.8249 28.7228 23.2821 30.5008 23.2821ZM30.5008 18.9789C31.0781 18.9789 31.5478 19.4521 31.5478 20.0337C31.5478 20.6153 31.0781 21.0884 30.5008 21.0884C29.9235 21.0884 29.4538 20.6153 29.4538 20.0337C29.4538 19.4521 29.9235 18.9789 30.5008 18.9789Z" fill="white"/>
</g>
<defs>
<clipPath id="clip0_396_98">
<rect width="30" height="34" fill="white" transform="translate(15.5 13)"/>
</clipPath>
</defs>
</svg>
